<?xml version="1.0" encoding="UTF-8" standalone="no"?>
<!-- Created with Inkscape (http://www.inkscape.org/) -->

<svg
   xmlns:osb="http://www.openswatchbook.org/uri/2009/osb"
   xmlns:dc="http://purl.org/dc/elements/1.1/"
   xmlns:cc="http://creativecommons.org/ns#"
   xmlns:rdf="http://www.w3.org/1999/02/22-rdf-syntax-ns#"
   xmlns:svg="http://www.w3.org/2000/svg"
   xmlns="http://www.w3.org/2000/svg"
   xmlns:xlink="http://www.w3.org/1999/xlink"
   xmlns:sodipodi="http://sodipodi.sourceforge.net/DTD/sodipodi-0.dtd"
   xmlns:inkscape="http://www.inkscape.org/namespaces/inkscape"
   width="318.10483"
   height="325.71237"
   id="svg2"
   version="1.1"
   inkscape:version="0.48.3.1 r9886"
   sodipodi:docname="logo.png">
  <defs
     id="defs4">
    <linearGradient
       inkscape:collect="always"
       id="linearGradient5424">
      <stop
         style="stop-color:#0000ff;stop-opacity:1;"
         offset="0"
         id="stop5426" />
      <stop
         style="stop-color:#0000ff;stop-opacity:0;"
         offset="1"
         id="stop5428" />
    </linearGradient>
    <linearGradient
       id="linearGradient5418"
       osb:paint="solid">
      <stop
         style="stop-color:#0051ff;stop-opacity:1;"
         offset="0"
         id="stop5420" />
    </linearGradient>
    <linearGradient
       id="linearGradient5388">
      <stop
         id="stop5400"
         offset="0"
         style="stop-color:#00007f;stop-opacity:0.49803922;" />
      <stop
         style="stop-color:#000000;stop-opacity:0;"
         offset="1"
         id="stop5392" />
    </linearGradient>
    <linearGradient
       id="linearGradient5374"
       osb:paint="solid">
      <stop
         style="stop-color:#000000;stop-opacity:1;"
         offset="0"
         id="stop5376" />
    </linearGradient>
    <linearGradient
       id="linearGradient5275"
       osb:paint="gradient">
      <stop
         style="stop-color:#0051ff;stop-opacity:1;"
         offset="0"
         id="stop5277" />
      <stop
         style="stop-color:#0051ff;stop-opacity:0;"
         offset="1"
         id="stop5279" />
    </linearGradient>
    <inkscape:perspective
       sodipodi:type="inkscape:persp3d"
       inkscape:vp_x="-25.714286 : 357.60966 : 1"
       inkscape:vp_y="0 : 1000 : 0"
       inkscape:vp_z="1184.0945 : 1289.0382 : 1"
       inkscape:persp3d-origin="372.04724 : 350.78739 : 1"
       id="perspective3003" />
    <radialGradient
       inkscape:collect="always"
       xlink:href="#linearGradient5388"
       id="radialGradient5398"
       cx="201.00539"
       cy="452.29791"
       fx="201.00539"
       fy="452.29791"
       r="159.05241"
       gradientTransform="matrix(1,0,0,1.0239152,0,-10.27334)"
       gradientUnits="userSpaceOnUse" />
    <radialGradient
       inkscape:collect="always"
       xlink:href="#linearGradient5424"
       id="radialGradient5430"
       cx="231.69846"
       cy="429.57404"
       fx="231.69846"
       fy="429.57404"
       r="159.05241"
       gradientTransform="matrix(0.69125584,0.0051692,-0.00466293,0.62355467,73.538608,160.51345)"
       gradientUnits="userSpaceOnUse" />
  </defs>
  <sodipodi:namedview
     id="base"
     pagecolor="#ffffff"
     bordercolor="#666666"
     borderopacity="1.0"
     inkscape:pageopacity="0"
     inkscape:pageshadow="2"
     inkscape:zoom="0.71417785"
     inkscape:cx="208.77647"
     inkscape:cy="155.85156"
     inkscape:document-units="px"
     inkscape:current-layer="layer1"
     showgrid="true"
     inkscape:window-width="1057"
     inkscape:window-height="853"
     inkscape:window-x="1970"
     inkscape:window-y="97"
     inkscape:window-maximized="0"
     inkscape:snap-grids="true"
     inkscape:snap-to-guides="true"
     fit-margin-top="0"
     fit-margin-left="0"
     fit-margin-right="0"
     fit-margin-bottom="0" />
  <metadata
     id="metadata7">
    <rdf:RDF>
      <cc:Work
         rdf:about="">
        <dc:format>image/svg+xml</dc:format>
        <dc:type
           rdf:resource="http://purl.org/dc/dcmitype/StillImage" />
        <dc:title></dc:title>
      </cc:Work>
    </rdf:RDF>
  </metadata>
  <g
     inkscape:label="Layer 1"
     inkscape:groupmode="layer"
     id="layer1"
     sodipodi:insensitive="true"
     transform="translate(-72.646037,-266.71785)">
    <path
       sodipodi:type="star"
       style="fill:#0051ff;fill-opacity:1;stroke:url(#radialGradient5430);stroke-opacity:1"
       id="path5358"
       sodipodi:sides="7"
       sodipodi:cx="239.45207"
       sodipodi:cy="429.6261"
       sodipodi:r1="162.3569"
       sodipodi:r2="162.19051"
       sodipodi:arg1="-1.3966975"
       sodipodi:arg2="1.3933554"
       inkscape:flatsided="false"
       inkscape:rounded="-0.2"
       inkscape:randomized="0"
       d="m 267.57564,269.72354 c 51.82523,-37.39723 52.45477,356.77033 0.50488,319.54645 C 225.27849,558.60086 331.29134,337.74364 382.00369,351.91638 443.55452,369.11818 135.77442,615.36982 132.487,551.54506 129.77846,498.9592 368.54952,444.14115 389.08746,492.62622 414.01486,551.47375 29.589821,464.37697 77.440357,422.01267 116.86489,387.1083 308.59469,539.60853 283.49273,585.89569 253.02586,642.07555 81.435777,287.21599 144.39184,298.21334 c 51.87013,9.06083 52.18222,254.04356 0.34265,263.27763 C 81.81552,572.69858 252.27123,217.29274 282.92562,273.3705 308.18208,319.57354 116.84145,472.56177 77.30052,437.78931 29.308716,395.58511 413.45359,307.26083 388.72293,366.19131 368.34709,414.74473 129.43714,360.53521 131.96998,307.94059 135.04415,244.1052 443.60926,489.37247 382.11624,506.77981 331.45152,521.1219 224.87631,300.53549 267.57564,269.72354 z"
       inkscape:transform-center-x="0.08060235"
       inkscape:transform-center-y="-0.085866162" />
    <path
       style="fill:none"
       d="m 311.31702,400.30608 c -3.80862,-3.21164 -4.55069,-4.80068 -4.55069,-9.74471 l 0,-5.90732 10.85164,0.9471 c 5.9684,0.5209 10.99391,1.05701 11.1678,1.19134 0.31068,0.24001 -10.16531,14.58679 -11.98694,16.41598 -0.51212,0.51425 -2.97893,-0.79183 -5.48181,-2.90239 z"
       id="path2999"
       inkscape:connector-curvature="0" />
    <path
       style="fill:none"
       d="m 250.46024,352.44301 -3.79817,-2.83467 7.2936,-8.91118 c 4.01148,-4.90115 7.45694,-8.74784 7.65658,-8.5482 0.19963,0.19963 1.58484,5.01697 3.07824,10.7052 2.05761,7.83727 2.31007,10.59983 1.04233,11.40579 -3.15812,2.00776 -11.47335,1.01852 -15.27258,-1.81694 l 0,0 z"
       id="path3001"
       inkscape:connector-curvature="0" />
    <path
       style="fill:none"
       d="m 179.4523,364.48189 c -0.87036,-4.99799 -1.93257,-9.99959 -2.36047,-11.11467 -0.54947,-1.43191 2.23797,-0.76936 9.48996,2.25567 5.64737,2.35569 10.45247,4.44386 10.67801,4.64036 0.22554,0.1965 -0.68021,2.64362 -2.01278,5.43804 -1.80295,3.78082 -3.69913,5.43532 -7.41112,6.4665 -2.74356,0.76215 -5.39617,1.38925 -5.8947,1.39354 -0.49853,0.004 -1.61854,-4.08145 -2.4889,-9.07944 z"
       id="path3003"
       inkscape:connector-curvature="0" />
    <path
       style="fill:none"
       d="m 149.54067,435.18324 -9.50336,-5.18334 9.79213,-5.66923 9.79212,-5.66922 2.28493,5.983 c 2.15068,5.63146 2.13371,6.2691 -0.28877,10.85256 l -2.5737,4.86957 -9.50335,-5.18334 z"
       id="path3005"
       inkscape:connector-curvature="0" />
    <path
       style="fill:none"
       d="m 179.14409,497.1378 c 1.12562,-5.9684 2.20053,-11.05283 2.38869,-11.29874 0.18815,-0.2459 2.79388,0.28747 5.79052,1.18529 4.01436,1.20273 6.16937,2.97685 8.18753,6.74044 l 2.73912,5.10806 -10.48721,4.55829 c -5.76797,2.50707 -10.52727,4.5583 -10.57622,4.5583 -0.049,0 0.83195,-4.88324 1.95757,-10.85164 z"
       id="path3007"
       inkscape:connector-curvature="0" />
    <path
       style="fill:none"
       d="m 253.9493,518.33845 -7.31015,-8.77102 4.675,-2.88931 c 4.76964,-2.9478 11.34807,-3.73384 14.50003,-1.73258 1.38231,0.87766 1.21329,3.2442 -0.79709,11.16055 -1.40326,5.52569 -2.82279,10.26196 -3.15451,10.52504 -0.33172,0.26309 -3.89269,-3.46861 -7.91328,-8.29268 z"
       id="path3009"
       inkscape:connector-curvature="0" />
    <path
       style="fill:none"
       d="m 314.90506,473.42786 c 1.01078,-0.40448 2.21846,-0.35473 2.68374,0.11055 0.46528,0.46527 -0.36172,0.79621 -1.83778,0.73541 -1.63116,-0.0672 -1.96295,-0.39897 -0.84596,-0.84596 z"
       id="path3011"
       inkscape:connector-curvature="0" />
  </g>
</svg>
